<svg width="1005" height="150" viewBox="0 0 1005 150" fill="none" xmlns="http://www.w3.org/2000/svg">
<path d="M76.6523 114H66.4805V74.4023H21.5547V114H11.3828V27.1758H21.5547V65.2598H66.4805V27.1758H76.6523V114ZM161.66 114H149.551L135.02 89.6602C133.688 87.3997 132.396 85.4824 131.145 83.9082C129.893 82.2936 128.602 80.9818 127.27 79.9727C125.978 78.9635 124.565 78.237 123.031 77.793C121.538 77.3086 119.842 77.0664 117.945 77.0664H109.59V114H99.418V27.1758H125.332C129.126 27.1758 132.618 27.6602 135.807 28.6289C139.036 29.5573 141.821 30.9902 144.162 32.9277C146.544 34.8652 148.4 37.2871 149.732 40.1934C151.064 43.0592 151.73 46.4297 151.73 50.3047C151.73 53.332 151.266 56.1172 150.338 58.6602C149.45 61.1628 148.158 63.403 146.463 65.3809C144.808 67.3587 142.79 69.054 140.408 70.4668C138.067 71.8392 135.423 72.9089 132.477 73.6758V73.918C133.93 74.5638 135.181 75.3105 136.23 76.1582C137.32 76.9655 138.35 77.9342 139.318 79.0645C140.287 80.1947 141.236 81.4863 142.164 82.9395C143.133 84.3522 144.202 86.0072 145.373 87.9043L161.66 114ZM109.59 36.3789V67.8633H123.395C125.938 67.8633 128.279 67.4798 130.418 66.7129C132.598 65.946 134.475 64.8561 136.049 63.4434C137.623 61.9902 138.854 60.2344 139.742 58.1758C140.63 56.0768 141.074 53.7357 141.074 51.1523C141.074 46.5104 139.561 42.8978 136.533 40.3145C133.546 37.6908 129.207 36.3789 123.516 36.3789H109.59ZM227.656 27.1758L199.018 81.9102V114H188.846V82.1523L160.934 27.1758H172.498L191.934 66.4102C192.176 66.8945 192.882 68.6706 194.053 71.7383H194.234C194.638 70.3659 195.405 68.5898 196.535 66.4102L216.879 27.1758H227.656ZM239.766 114V27.1758H264.469C271.977 27.1758 277.93 29.0124 282.33 32.6855C286.73 36.3587 288.93 41.1419 288.93 47.0352C288.93 51.9596 287.598 56.2383 284.934 59.8711C282.27 63.5039 278.596 66.0872 273.914 67.6211V67.8633C279.767 68.5495 284.449 70.7695 287.961 74.5234C291.473 78.237 293.229 83.0807 293.229 89.0547C293.229 96.4818 290.564 102.496 285.236 107.098C279.908 111.699 273.188 114 265.074 114H239.766ZM249.938 36.3789V64.4121H260.352C265.922 64.4121 270.301 63.0801 273.49 60.416C276.679 57.7116 278.273 53.9173 278.273 49.0332C278.273 40.597 272.723 36.3789 261.623 36.3789H249.938ZM249.938 73.5547V104.797H263.742C269.716 104.797 274.338 103.384 277.607 100.559C280.917 97.7331 282.572 93.8581 282.572 88.9336C282.572 78.681 275.589 73.5547 261.623 73.5547H249.938ZM378.055 114H366.793L357.59 89.6602H320.777L312.119 114H300.797L334.098 27.1758H344.633L378.055 114ZM354.26 80.5176L340.637 43.5234C340.193 42.3125 339.749 40.375 339.305 37.7109H339.062C338.659 40.1732 338.195 42.1107 337.67 43.5234L324.168 80.5176H354.26ZM460.883 114H448.41L403.727 44.7949C402.596 43.0592 401.668 41.2428 400.941 39.3457H400.578C400.901 41.2025 401.062 45.1784 401.062 51.2734V114H390.891V27.1758H404.09L447.562 95.291C449.379 98.1165 450.549 100.054 451.074 101.104H451.316C450.913 98.6009 450.711 94.3424 450.711 88.3281V27.1758H460.883V114ZM550.855 114H539.594L530.391 89.6602H493.578L484.92 114H473.598L506.898 27.1758H517.434L550.855 114ZM527.061 80.5176L513.438 43.5234C512.993 42.3125 512.549 40.375 512.105 37.7109H511.863C511.46 40.1732 510.995 42.1107 510.471 43.5234L496.969 80.5176H527.061ZM624.783 78.8828C624.783 103.263 613.784 115.453 591.785 115.453C570.715 115.453 560.18 103.727 560.18 80.2754V27.1758H570.352V79.6094C570.352 97.4102 577.859 106.311 592.875 106.311C607.366 106.311 614.611 97.7129 614.611 80.5176V27.1758H624.783V78.8828ZM724.625 36.3789H690.719V66.4102H722.082V75.5527H690.719V114H680.547V27.1758H724.625V36.3789ZM751.266 114H741.094V27.1758H751.266V114ZM819.199 114H774.152V27.1758H784.324V104.797H819.199V114ZM921.039 114H910.928V55.7539C910.928 51.1523 911.21 45.5215 911.775 38.8613H911.533C910.564 42.7767 909.697 45.582 908.93 47.2773L879.262 114H874.297L844.689 47.7617C843.842 45.8242 842.974 42.8574 842.086 38.8613H841.844C842.167 42.3327 842.328 48.0039 842.328 55.875V114H832.52V27.1758H845.961L872.602 87.7227C874.66 92.3646 875.992 95.8359 876.598 98.1367H876.961C878.697 93.3737 880.089 89.8216 881.139 87.4805L908.324 27.1758H921.039V114ZM939.869 110.488V98.5C941.242 99.7109 942.876 100.801 944.773 101.77C946.711 102.738 948.729 103.566 950.828 104.252C952.967 104.898 955.107 105.402 957.246 105.766C959.385 106.129 961.363 106.311 963.18 106.311C969.436 106.311 974.098 105.16 977.166 102.859C980.274 100.518 981.828 97.168 981.828 92.8086C981.828 90.4674 981.303 88.429 980.254 86.6934C979.245 84.9577 977.832 83.3835 976.016 81.9707C974.199 80.5176 972.04 79.1452 969.537 77.8535C967.075 76.5215 964.411 75.1289 961.545 73.6758C958.518 72.1419 955.692 70.5879 953.068 69.0137C950.445 67.4395 948.164 65.7038 946.227 63.8066C944.289 61.9095 942.755 59.7702 941.625 57.3887C940.535 54.9668 939.99 52.1413 939.99 48.9121C939.99 44.9564 940.858 41.5254 942.594 38.6191C944.329 35.6725 946.61 33.2507 949.436 31.3535C952.261 29.4564 955.47 28.0436 959.062 27.1152C962.695 26.1868 966.389 25.7227 970.143 25.7227C978.7 25.7227 984.936 26.752 988.852 28.8105V40.2539C983.725 36.7018 977.146 34.9258 969.113 34.9258C966.893 34.9258 964.673 35.168 962.453 35.6523C960.233 36.0964 958.255 36.8431 956.52 37.8926C954.784 38.9421 953.371 40.2943 952.281 41.9492C951.191 43.6042 950.646 45.6224 950.646 48.0039C950.646 50.224 951.05 52.1413 951.857 53.7559C952.705 55.3704 953.936 56.8438 955.551 58.1758C957.165 59.5078 959.123 60.7995 961.424 62.0508C963.765 63.3021 966.449 64.6745 969.477 66.168C972.585 67.7018 975.531 69.3164 978.316 71.0117C981.102 72.707 983.544 74.584 985.643 76.6426C987.742 78.7012 989.396 80.9818 990.607 83.4844C991.859 85.987 992.484 88.8529 992.484 92.082C992.484 96.3607 991.637 99.9935 989.941 102.98C988.286 105.927 986.026 108.329 983.16 110.186C980.335 112.042 977.065 113.374 973.352 114.182C969.638 115.029 965.723 115.453 961.605 115.453C960.233 115.453 958.538 115.332 956.52 115.09C954.501 114.888 952.443 114.565 950.344 114.121C948.245 113.717 946.247 113.213 944.35 112.607C942.493 111.962 940.999 111.255 939.869 110.488Z" fill="white"/>
<path opacity="0.13" d="M82.6523 119H72.4805V79.4023H27.5547V119H17.3828V32.1758H27.5547V70.2598H72.4805V32.1758H82.6523V119ZM167.66 119H155.551L141.02 94.6602C139.688 92.3997 138.396 90.4824 137.145 88.9082C135.893 87.2936 134.602 85.9818 133.27 84.9727C131.978 83.9635 130.565 83.237 129.031 82.793C127.538 82.3086 125.842 82.0664 123.945 82.0664H115.59V119H105.418V32.1758H131.332C135.126 32.1758 138.618 32.6602 141.807 33.6289C145.036 34.5573 147.821 35.9902 150.162 37.9277C152.544 39.8652 154.4 42.2871 155.732 45.1934C157.064 48.0592 157.73 51.4297 157.73 55.3047C157.73 58.332 157.266 61.1172 156.338 63.6602C155.45 66.1628 154.158 68.403 152.463 70.3809C150.808 72.3587 148.79 74.054 146.408 75.4668C144.067 76.8392 141.423 77.9089 138.477 78.6758V78.918C139.93 79.5638 141.181 80.3105 142.23 81.1582C143.32 81.9655 144.35 82.9342 145.318 84.0645C146.287 85.1947 147.236 86.4863 148.164 87.9395C149.133 89.3522 150.202 91.0072 151.373 92.9043L167.66 119ZM115.59 41.3789V72.8633H129.395C131.938 72.8633 134.279 72.4798 136.418 71.7129C138.598 70.946 140.475 69.8561 142.049 68.4434C143.623 66.9902 144.854 65.2344 145.742 63.1758C146.63 61.0768 147.074 58.7357 147.074 56.1523C147.074 51.5104 145.561 47.8978 142.533 45.3145C139.546 42.6908 135.207 41.3789 129.516 41.3789H115.59ZM233.656 32.1758L205.018 86.9102V119H194.846V87.1523L166.934 32.1758H178.498L197.934 71.4102C198.176 71.8945 198.882 73.6706 200.053 76.7383H200.234C200.638 75.3659 201.405 73.5898 202.535 71.4102L222.879 32.1758H233.656ZM245.766 119V32.1758H270.469C277.977 32.1758 283.93 34.0124 288.33 37.6855C292.73 41.3587 294.93 46.1419 294.93 52.0352C294.93 56.9596 293.598 61.2383 290.934 64.8711C288.27 68.5039 284.596 71.0872 279.914 72.6211V72.8633C285.767 73.5495 290.449 75.7695 293.961 79.5234C297.473 83.237 299.229 88.0807 299.229 94.0547C299.229 101.482 296.564 107.496 291.236 112.098C285.908 116.699 279.188 119 271.074 119H245.766ZM255.938 41.3789V69.4121H266.352C271.922 69.4121 276.301 68.0801 279.49 65.416C282.679 62.7116 284.273 58.9173 284.273 54.0332C284.273 45.597 278.723 41.3789 267.623 41.3789H255.938ZM255.938 78.5547V109.797H269.742C275.716 109.797 280.338 108.384 283.607 105.559C286.917 102.733 288.572 98.8581 288.572 93.9336C288.572 83.681 281.589 78.5547 267.623 78.5547H255.938ZM384.055 119H372.793L363.59 94.6602H326.777L318.119 119H306.797L340.098 32.1758H350.633L384.055 119ZM360.26 85.5176L346.637 48.5234C346.193 47.3125 345.749 45.375 345.305 42.7109H345.062C344.659 45.1732 344.195 47.1107 343.67 48.5234L330.168 85.5176H360.26ZM466.883 119H454.41L409.727 49.7949C408.596 48.0592 407.668 46.2428 406.941 44.3457H406.578C406.901 46.2025 407.062 50.1784 407.062 56.2734V119H396.891V32.1758H410.09L453.562 100.291C455.379 103.117 456.549 105.054 457.074 106.104H457.316C456.913 103.601 456.711 99.3424 456.711 93.3281V32.1758H466.883V119ZM556.855 119H545.594L536.391 94.6602H499.578L490.92 119H479.598L512.898 32.1758H523.434L556.855 119ZM533.061 85.5176L519.438 48.5234C518.993 47.3125 518.549 45.375 518.105 42.7109H517.863C517.46 45.1732 516.995 47.1107 516.471 48.5234L502.969 85.5176H533.061ZM630.783 83.8828C630.783 108.263 619.784 120.453 597.785 120.453C576.715 120.453 566.18 108.727 566.18 85.2754V32.1758H576.352V84.6094C576.352 102.41 583.859 111.311 598.875 111.311C613.366 111.311 620.611 102.713 620.611 85.5176V32.1758H630.783V83.8828ZM730.625 41.3789H696.719V71.4102H728.082V80.5527H696.719V119H686.547V32.1758H730.625V41.3789ZM757.266 119H747.094V32.1758H757.266V119ZM825.199 119H780.152V32.1758H790.324V109.797H825.199V119ZM927.039 119H916.928V60.7539C916.928 56.1523 917.21 50.5215 917.775 43.8613H917.533C916.564 47.7767 915.697 50.582 914.93 52.2773L885.262 119H880.297L850.689 52.7617C849.842 50.8242 848.974 47.8574 848.086 43.8613H847.844C848.167 47.3327 848.328 53.0039 848.328 60.875V119H838.52V32.1758H851.961L878.602 92.7227C880.66 97.3646 881.992 100.836 882.598 103.137H882.961C884.697 98.3737 886.089 94.8216 887.139 92.4805L914.324 32.1758H927.039V119ZM945.869 115.488V103.5C947.242 104.711 948.876 105.801 950.773 106.77C952.711 107.738 954.729 108.566 956.828 109.252C958.967 109.898 961.107 110.402 963.246 110.766C965.385 111.129 967.363 111.311 969.18 111.311C975.436 111.311 980.098 110.16 983.166 107.859C986.274 105.518 987.828 102.168 987.828 97.8086C987.828 95.4674 987.303 93.429 986.254 91.6934C985.245 89.9577 983.832 88.3835 982.016 86.9707C980.199 85.5176 978.04 84.1452 975.537 82.8535C973.075 81.5215 970.411 80.1289 967.545 78.6758C964.518 77.1419 961.692 75.5879 959.068 74.0137C956.445 72.4395 954.164 70.7038 952.227 68.8066C950.289 66.9095 948.755 64.7702 947.625 62.3887C946.535 59.9668 945.99 57.1413 945.99 53.9121C945.99 49.9564 946.858 46.5254 948.594 43.6191C950.329 40.6725 952.61 38.2507 955.436 36.3535C958.261 34.4564 961.47 33.0436 965.062 32.1152C968.695 31.1868 972.389 30.7227 976.143 30.7227C984.7 30.7227 990.936 31.752 994.852 33.8105V45.2539C989.725 41.7018 983.146 39.9258 975.113 39.9258C972.893 39.9258 970.673 40.168 968.453 40.6523C966.233 41.0964 964.255 41.8431 962.52 42.8926C960.784 43.9421 959.371 45.2943 958.281 46.9492C957.191 48.6042 956.646 50.6224 956.646 53.0039C956.646 55.224 957.05 57.1413 957.857 58.7559C958.705 60.3704 959.936 61.8438 961.551 63.1758C963.165 64.5078 965.123 65.7995 967.424 67.0508C969.765 68.3021 972.449 69.6745 975.477 71.168C978.585 72.7018 981.531 74.3164 984.316 76.0117C987.102 77.707 989.544 79.584 991.643 81.6426C993.742 83.7012 995.396 85.9818 996.607 88.4844C997.859 90.987 998.484 93.8529 998.484 97.082C998.484 101.361 997.637 104.993 995.941 107.98C994.286 110.927 992.026 113.329 989.16 115.186C986.335 117.042 983.065 118.374 979.352 119.182C975.638 120.029 971.723 120.453 967.605 120.453C966.233 120.453 964.538 120.332 962.52 120.09C960.501 119.888 958.443 119.565 956.344 119.121C954.245 118.717 952.247 118.213 950.35 117.607C948.493 116.962 946.999 116.255 945.869 115.488Z" fill="white"/>
</svg>
